<svg xmlns="http://www.w3.org/2000/svg" viewBox="0 0 48 48" fill="none">
  <defs>
    <linearGradient id="logoGradient" x1="0%" y1="0%" x2="100%" y2="100%">
      <stop offset="0%" style="stop-color:#2dd4bf"/>
      <stop offset="100%" style="stop-color:#14b8a6"/>
    </linearGradient>
  </defs>

  <!-- Main cloud shape -->
  <path d="M38 28c0-2.2-1.8-4-4-4-.4 0-.8.1-1.2.2C32.2 19.7 28.4 16 24 16c-5 0-9 4-9 9 0 .3 0 .7.1 1C11.6 26.4 9 29.2 9 32.5 9 36.1 11.9 39 15.5 39h19c3.6 0 6.5-2.9 6.5-6.5 0-2.3-1.2-4.3-3-5.5z" fill="url(#logoGradient)"/>

  <!-- Vibe waves inside cloud -->
  <g stroke="white" stroke-width="2" stroke-linecap="round" fill="none" opacity="0.9">
    <path d="M16 30c1.5-1.5 3-1.5 4.5 0s3 1.5 4.5 0 3-1.5 4.5 0">
      <animate attributeName="d"
        values="M16 30c1.5-1.5 3-1.5 4.5 0s3 1.5 4.5 0 3-1.5 4.5 0;M16 30c1.5 1.5 3 1.5 4.5 0s3-1.5 4.5 0 3 1.5 4.5 0;M16 30c1.5-1.5 3-1.5 4.5 0s3 1.5 4.5 0 3-1.5 4.5 0"
        dur="2s" repeatCount="indefinite"/>
    </path>
    <path d="M18 34c1.2-1.2 2.4-1.2 3.6 0s2.4 1.2 3.6 0 2.4-1.2 3.6 0" opacity="0.7">
      <animate attributeName="d"
        values="M18 34c1.2-1.2 2.4-1.2 3.6 0s2.4 1.2 3.6 0 2.4-1.2 3.6 0;M18 34c1.2 1.2 2.4 1.2 3.6 0s2.4-1.2 3.6 0 2.4 1.2 3.6 0;M18 34c1.2-1.2 2.4-1.2 3.6 0s2.4 1.2 3.6 0 2.4-1.2 3.6 0"
        dur="2s" begin="0.3s" repeatCount="indefinite"/>
    </path>
  </g>

  <!-- Connection dots (representing nodes/systems) -->
  <circle cx="14" cy="26" r="1.5" fill="white" opacity="0.8"/>
  <circle cx="34" cy="26" r="1.5" fill="white" opacity="0.8"/>
  <circle cx="24" cy="21" r="1.5" fill="white" opacity="0.8"/>
</svg>
